<?xml version="1.0" encoding="utf-8"?>
<svg xmlns="http://www.w3.org/2000/svg" xmlns:xlink="http://www.w3.org/1999/xlink" width="600" height="400" viewBox="0 0 2400 1600">
<defs>
  <clipPath id="clip660">
    <rect x="0" y="0" width="2400" height="1600"/>
  </clipPath>
</defs>
<path clip-path="url(#clip660)" d="
M0 1600 L2400 1600 L2400 0 L0 0  Z
  " fill="#ffffff" fill-rule="evenodd" fill-opacity="1"/>
<defs>
  <clipPath id="clip661">
    <rect x="480" y="0" width="1681" height="1600"/>
  </clipPath>
</defs>
<path clip-path="url(#clip660)" d="
M178.867 1486.45 L2352.76 1486.45 L2352.76 47.2441 L178.867 47.2441  Z
  " fill="#ffffff" fill-rule="evenodd" fill-opacity="1"/>
<defs>
  <clipPath id="clip662">
    <rect x="178" y="47" width="2175" height="1440"/>
  </clipPath>
</defs>
<polyline clip-path="url(#clip662)" style="stroke:#000000; stroke-linecap:butt; stroke-linejoin:round; stroke-width:2; stroke-opacity:0.2; fill:none" points="
  178.867,1486.45 178.867,47.2441 
  "/>
<polyline clip-path="url(#clip662)" style="stroke:#000000; stroke-linecap:butt; stroke-linejoin:round; stroke-width:2; stroke-opacity:0.2; fill:none" points="
  614.08,1486.45 614.08,47.2441 
  "/>
<polyline clip-path="url(#clip662)" style="stroke:#000000; stroke-linecap:butt; stroke-linejoin:round; stroke-width:2; stroke-opacity:0.2; fill:none" points="
  1049.29,1486.45 1049.29,47.2441 
  "/>
<polyline clip-path="url(#clip662)" style="stroke:#000000; stroke-linecap:butt; stroke-linejoin:round; stroke-width:2; stroke-opacity:0.2; fill:none" points="
  1484.51,1486.45 1484.51,47.2441 
  "/>
<polyline clip-path="url(#clip662)" style="stroke:#000000; stroke-linecap:butt; stroke-linejoin:round; stroke-width:2; stroke-opacity:0.2; fill:none" points="
  1919.72,1486.45 1919.72,47.2441 
  "/>
<polyline clip-path="url(#clip660)" style="stroke:#000000; stroke-linecap:butt; stroke-linejoin:round; stroke-width:4; stroke-opacity:1; fill:none" points="
  178.867,1486.45 2352.76,1486.45 
  "/>
<polyline clip-path="url(#clip660)" style="stroke:#000000; stroke-linecap:butt; stroke-linejoin:round; stroke-width:4; stroke-opacity:1; fill:none" points="
  178.867,47.2441 2352.76,47.2441 
  "/>
<polyline clip-path="url(#clip660)" style="stroke:#000000; stroke-linecap:butt; stroke-linejoin:round; stroke-width:4; stroke-opacity:1; fill:none" points="
  178.867,1486.45 178.867,1503.72 
  "/>
<polyline clip-path="url(#clip660)" style="stroke:#000000; stroke-linecap:butt; stroke-linejoin:round; stroke-width:4; stroke-opacity:1; fill:none" points="
  614.08,1486.45 614.08,1503.72 
  "/>
<polyline clip-path="url(#clip660)" style="stroke:#000000; stroke-linecap:butt; stroke-linejoin:round; stroke-width:4; stroke-opacity:1; fill:none" points="
  1049.29,1486.45 1049.29,1503.72 
  "/>
<polyline clip-path="url(#clip660)" style="stroke:#000000; stroke-linecap:butt; stroke-linejoin:round; stroke-width:4; stroke-opacity:1; fill:none" points="
  1484.51,1486.45 1484.51,1503.72 
  "/>
<polyline clip-path="url(#clip660)" style="stroke:#000000; stroke-linecap:butt; stroke-linejoin:round; stroke-width:4; stroke-opacity:1; fill:none" points="
  1919.72,1486.45 1919.72,1503.72 
  "/>
<path clip-path="url(#clip660)" d="M156.251 1525.24 Q152.64 1525.24 150.811 1528.8 Q149.006 1532.35 149.006 1539.47 Q149.006 1546.58 150.811 1550.15 Q152.64 1553.69 156.251 1553.69 Q159.885 1553.69 161.691 1550.15 Q163.519 1546.58 163.519 1539.47 Q163.519 1532.35 161.691 1528.8 Q159.885 1525.24 156.251 1525.24 M156.251 1521.53 Q162.061 1521.53 165.117 1526.14 Q168.195 1530.72 168.195 1539.47 Q168.195 1548.2 165.117 1552.81 Q162.061 1557.39 156.251 1557.39 Q150.441 1557.39 147.362 1552.81 Q144.307 1548.2 144.307 1539.47 Q144.307 1530.72 147.362 1526.14 Q150.441 1521.53 156.251 1521.53 Z" fill="#000000" fill-rule="evenodd" fill-opacity="1" /><path clip-path="url(#clip660)" d="M176.413 1550.84 L181.297 1550.84 L181.297 1556.72 L176.413 1556.72 L176.413 1550.84 Z" fill="#000000" fill-rule="evenodd" fill-opacity="1" /><path clip-path="url(#clip660)" d="M201.482 1525.24 Q197.871 1525.24 196.042 1528.8 Q194.237 1532.35 194.237 1539.47 Q194.237 1546.58 196.042 1550.15 Q197.871 1553.69 201.482 1553.69 Q205.116 1553.69 206.922 1550.15 Q208.751 1546.58 208.751 1539.47 Q208.751 1532.35 206.922 1528.8 Q205.116 1525.24 201.482 1525.24 M201.482 1521.53 Q207.292 1521.53 210.348 1526.14 Q213.427 1530.72 213.427 1539.47 Q213.427 1548.2 210.348 1552.81 Q207.292 1557.39 201.482 1557.39 Q195.672 1557.39 192.593 1552.81 Q189.538 1548.2 189.538 1539.47 Q189.538 1530.72 192.593 1526.14 Q195.672 1521.53 201.482 1521.53 Z" fill="#000000" fill-rule="evenodd" fill-opacity="1" /><path clip-path="url(#clip660)" d="M592.263 1525.24 Q588.652 1525.24 586.823 1528.8 Q585.017 1532.35 585.017 1539.47 Q585.017 1546.58 586.823 1550.15 Q588.652 1553.69 592.263 1553.69 Q595.897 1553.69 597.702 1550.15 Q599.531 1546.58 599.531 1539.47 Q599.531 1532.35 597.702 1528.8 Q595.897 1525.24 592.263 1525.24 M592.263 1521.53 Q598.073 1521.53 601.128 1526.14 Q604.207 1530.72 604.207 1539.47 Q604.207 1548.2 601.128 1552.81 Q598.073 1557.39 592.263 1557.39 Q586.453 1557.39 583.374 1552.81 Q580.318 1548.2 580.318 1539.47 Q580.318 1530.72 583.374 1526.14 Q586.453 1521.53 592.263 1521.53 Z" fill="#000000" fill-rule="evenodd" fill-opacity="1" /><path clip-path="url(#clip660)" d="M612.425 1550.84 L617.309 1550.84 L617.309 1556.72 L612.425 1556.72 L612.425 1550.84 Z" fill="#000000" fill-rule="evenodd" fill-opacity="1" /><path clip-path="url(#clip660)" d="M631.522 1552.78 L647.841 1552.78 L647.841 1556.72 L625.897 1556.72 L625.897 1552.78 Q628.559 1550.03 633.142 1545.4 Q637.749 1540.75 638.929 1539.41 Q641.174 1536.88 642.054 1535.15 Q642.957 1533.39 642.957 1531.7 Q642.957 1528.94 641.012 1527.21 Q639.091 1525.47 635.989 1525.47 Q633.79 1525.47 631.337 1526.23 Q628.906 1527 626.128 1528.55 L626.128 1523.83 Q628.952 1522.69 631.406 1522.11 Q633.86 1521.53 635.897 1521.53 Q641.267 1521.53 644.461 1524.22 Q647.656 1526.91 647.656 1531.4 Q647.656 1533.53 646.846 1535.45 Q646.059 1537.34 643.952 1539.94 Q643.374 1540.61 640.272 1543.83 Q637.17 1547.02 631.522 1552.78 Z" fill="#000000" fill-rule="evenodd" fill-opacity="1" /><path clip-path="url(#clip660)" d="M1026.43 1525.24 Q1022.82 1525.24 1020.99 1528.8 Q1019.19 1532.35 1019.19 1539.47 Q1019.19 1546.58 1020.99 1550.15 Q1022.82 1553.69 1026.43 1553.69 Q1030.07 1553.69 1031.87 1550.15 Q1033.7 1546.58 1033.7 1539.47 Q1033.7 1532.35 1031.87 1528.8 Q1030.07 1525.24 1026.43 1525.24 M1026.43 1521.53 Q1032.24 1521.53 1035.3 1526.14 Q1038.38 1530.72 1038.38 1539.47 Q1038.38 1548.2 1035.3 1552.81 Q1032.24 1557.39 1026.43 1557.39 Q1020.62 1557.39 1017.55 1552.81 Q1014.49 1548.2 1014.49 1539.47 Q1014.49 1530.72 1017.55 1526.14 Q1020.62 1521.53 1026.43 1521.53 Z" fill="#000000" fill-rule="evenodd" fill-opacity="1" /><path clip-path="url(#clip660)" d="M1046.6 1550.84 L1051.48 1550.84 L1051.48 1556.72 L1046.6 1556.72 L1046.6 1550.84 Z" fill="#000000" fill-rule="evenodd" fill-opacity="1" /><path clip-path="url(#clip660)" d="M1074.51 1526.23 L1062.71 1544.68 L1074.51 1544.68 L1074.51 1526.23 M1073.29 1522.16 L1079.17 1522.16 L1079.17 1544.68 L1084.1 1544.68 L1084.1 1548.57 L1079.17 1548.57 L1079.17 1556.72 L1074.51 1556.72 L1074.51 1548.57 L1058.91 1548.57 L1058.91 1544.06 L1073.29 1522.16 Z" fill="#000000" fill-rule="evenodd" fill-opacity="1" /><path clip-path="url(#clip660)" d="M1461.81 1525.24 Q1458.2 1525.24 1456.37 1528.8 Q1454.56 1532.35 1454.56 1539.47 Q1454.56 1546.58 1456.37 1550.15 Q1458.2 1553.69 1461.81 1553.69 Q1465.44 1553.69 1467.25 1550.15 Q1469.08 1546.58 1469.08 1539.47 Q1469.08 1532.35 1467.25 1528.8 Q1465.44 1525.24 1461.81 1525.24 M1461.81 1521.53 Q1467.62 1521.53 1470.67 1526.14 Q1473.75 1530.72 1473.75 1539.47 Q1473.75 1548.2 1470.67 1552.81 Q1467.62 1557.39 1461.81 1557.39 Q1456 1557.39 1452.92 1552.81 Q1449.86 1548.2 1449.86 1539.47 Q1449.86 1530.72 1452.92 1526.14 Q1456 1521.53 1461.81 1521.53 Z" fill="#000000" fill-rule="evenodd" fill-opacity="1" /><path clip-path="url(#clip660)" d="M1481.97 1550.84 L1486.86 1550.84 L1486.86 1556.72 L1481.97 1556.72 L1481.97 1550.84 Z" fill="#000000" fill-rule="evenodd" fill-opacity="1" /><path clip-path="url(#clip660)" d="M1507.62 1537.58 Q1504.47 1537.58 1502.62 1539.73 Q1500.79 1541.88 1500.79 1545.63 Q1500.79 1549.36 1502.62 1551.53 Q1504.47 1553.69 1507.62 1553.69 Q1510.77 1553.69 1512.6 1551.53 Q1514.45 1549.36 1514.45 1545.63 Q1514.45 1541.88 1512.6 1539.73 Q1510.77 1537.58 1507.62 1537.58 M1516.9 1522.92 L1516.9 1527.18 Q1515.14 1526.35 1513.34 1525.91 Q1511.55 1525.47 1509.8 1525.47 Q1505.17 1525.47 1502.71 1528.6 Q1500.28 1531.72 1499.93 1538.04 Q1501.3 1536.03 1503.36 1534.96 Q1505.42 1533.87 1507.9 1533.87 Q1513.11 1533.87 1516.11 1537.04 Q1519.15 1540.19 1519.15 1545.63 Q1519.15 1550.96 1516 1554.17 Q1512.85 1557.39 1507.62 1557.39 Q1501.62 1557.39 1498.45 1552.81 Q1495.28 1548.2 1495.28 1539.47 Q1495.28 1531.28 1499.17 1526.42 Q1503.06 1521.53 1509.61 1521.53 Q1511.37 1521.53 1513.15 1521.88 Q1514.96 1522.23 1516.9 1522.92 Z" fill="#000000" fill-rule="evenodd" fill-opacity="1" /><path clip-path="url(#clip660)" d="M1897.15 1525.24 Q1893.54 1525.24 1891.71 1528.8 Q1889.9 1532.35 1889.9 1539.47 Q1889.9 1546.58 1891.71 1550.15 Q1893.54 1553.69 1897.15 1553.69 Q1900.78 1553.69 1902.59 1550.15 Q1904.42 1546.58 1904.42 1539.47 Q1904.42 1532.35 1902.59 1528.8 Q1900.78 1525.24 1897.15 1525.24 M1897.15 1521.53 Q1902.96 1521.53 1906.02 1526.14 Q1909.09 1530.72 1909.09 1539.47 Q1909.09 1548.2 1906.02 1552.81 Q1902.96 1557.39 1897.15 1557.39 Q1891.34 1557.39 1888.26 1552.81 Q1885.21 1548.2 1885.21 1539.47 Q1885.21 1530.72 1888.26 1526.14 Q1891.34 1521.53 1897.15 1521.53 Z" fill="#000000" fill-rule="evenodd" fill-opacity="1" /><path clip-path="url(#clip660)" d="M1917.31 1550.84 L1922.2 1550.84 L1922.2 1556.72 L1917.31 1556.72 L1917.31 1550.84 Z" fill="#000000" fill-rule="evenodd" fill-opacity="1" /><path clip-path="url(#clip660)" d="M1942.38 1540.31 Q1939.05 1540.31 1937.13 1542.09 Q1935.23 1543.87 1935.23 1547 Q1935.23 1550.12 1937.13 1551.91 Q1939.05 1553.69 1942.38 1553.69 Q1945.71 1553.69 1947.64 1551.91 Q1949.56 1550.1 1949.56 1547 Q1949.56 1543.87 1947.64 1542.09 Q1945.74 1540.31 1942.38 1540.31 M1937.7 1538.32 Q1934.7 1537.58 1933.01 1535.52 Q1931.34 1533.46 1931.34 1530.49 Q1931.34 1526.35 1934.28 1523.94 Q1937.24 1521.53 1942.38 1521.53 Q1947.54 1521.53 1950.48 1523.94 Q1953.42 1526.35 1953.42 1530.49 Q1953.42 1533.46 1951.73 1535.52 Q1950.07 1537.58 1947.08 1538.32 Q1950.46 1539.1 1952.33 1541.4 Q1954.23 1543.69 1954.23 1547 Q1954.23 1552.02 1951.15 1554.71 Q1948.1 1557.39 1942.38 1557.39 Q1936.66 1557.39 1933.58 1554.71 Q1930.53 1552.02 1930.53 1547 Q1930.53 1543.69 1932.43 1541.4 Q1934.33 1539.1 1937.7 1538.32 M1935.99 1530.93 Q1935.99 1533.62 1937.66 1535.12 Q1939.35 1536.63 1942.38 1536.63 Q1945.39 1536.63 1947.08 1535.12 Q1948.79 1533.62 1948.79 1530.93 Q1948.79 1528.25 1947.08 1526.74 Q1945.39 1525.24 1942.38 1525.24 Q1939.35 1525.24 1937.66 1526.74 Q1935.99 1528.25 1935.99 1530.93 Z" fill="#000000" fill-rule="evenodd" fill-opacity="1" /><polyline clip-path="url(#clip662)" style="stroke:#000000; stroke-linecap:butt; stroke-linejoin:round; stroke-width:2; stroke-opacity:0.2; fill:none" points="
  178.867,1484.49 2352.76,1484.49 
  "/>
<polyline clip-path="url(#clip662)" style="stroke:#000000; stroke-linecap:butt; stroke-linejoin:round; stroke-width:2; stroke-opacity:0.2; fill:none" points="
  178.867,1126.24 2352.76,1126.24 
  "/>
<polyline clip-path="url(#clip662)" style="stroke:#000000; stroke-linecap:butt; stroke-linejoin:round; stroke-width:2; stroke-opacity:0.2; fill:none" points="
  178.867,767.994 2352.76,767.994 
  "/>
<polyline clip-path="url(#clip662)" style="stroke:#000000; stroke-linecap:butt; stroke-linejoin:round; stroke-width:2; stroke-opacity:0.2; fill:none" points="
  178.867,409.747 2352.76,409.747 
  "/>
<polyline clip-path="url(#clip662)" style="stroke:#000000; stroke-linecap:butt; stroke-linejoin:round; stroke-width:2; stroke-opacity:0.2; fill:none" points="
  178.867,51.4998 2352.76,51.4998 
  "/>
<polyline clip-path="url(#clip660)" style="stroke:#000000; stroke-linecap:butt; stroke-linejoin:round; stroke-width:4; stroke-opacity:1; fill:none" points="
  178.867,1486.45 178.867,47.2441 
  "/>
<polyline clip-path="url(#clip660)" style="stroke:#000000; stroke-linecap:butt; stroke-linejoin:round; stroke-width:4; stroke-opacity:1; fill:none" points="
  2352.76,1486.45 2352.76,47.2441 
  "/>
<polyline clip-path="url(#clip660)" style="stroke:#000000; stroke-linecap:butt; stroke-linejoin:round; stroke-width:4; stroke-opacity:1; fill:none" points="
  178.867,1484.49 152.78,1484.49 
  "/>
<polyline clip-path="url(#clip660)" style="stroke:#000000; stroke-linecap:butt; stroke-linejoin:round; stroke-width:4; stroke-opacity:1; fill:none" points="
  178.867,1126.24 152.78,1126.24 
  "/>
<polyline clip-path="url(#clip660)" style="stroke:#000000; stroke-linecap:butt; stroke-linejoin:round; stroke-width:4; stroke-opacity:1; fill:none" points="
  178.867,767.994 152.78,767.994 
  "/>
<polyline clip-path="url(#clip660)" style="stroke:#000000; stroke-linecap:butt; stroke-linejoin:round; stroke-width:4; stroke-opacity:1; fill:none" points="
  178.867,409.747 152.78,409.747 
  "/>
<polyline clip-path="url(#clip660)" style="stroke:#000000; stroke-linecap:butt; stroke-linejoin:round; stroke-width:4; stroke-opacity:1; fill:none" points="
  178.867,51.4998 152.78,51.4998 
  "/>
<path clip-path="url(#clip660)" d="M32.9921 1484.94 L62.6679 1484.94 L62.6679 1488.87 L32.9921 1488.87 L32.9921 1484.94 Z" fill="#000000" fill-rule="evenodd" fill-opacity="1" /><path clip-path="url(#clip660)" d="M76.7882 1497.83 L93.1075 1497.83 L93.1075 1501.77 L71.1632 1501.77 L71.1632 1497.83 Q73.8252 1495.08 78.4085 1490.45 Q83.015 1485.8 84.1956 1484.45 Q86.4409 1481.93 87.3205 1480.19 Q88.2233 1478.43 88.2233 1476.74 Q88.2233 1473.99 86.2789 1472.25 Q84.3576 1470.52 81.2558 1470.52 Q79.0567 1470.52 76.603 1471.28 Q74.1725 1472.05 71.3947 1473.6 L71.3947 1468.87 Q74.2188 1467.74 76.6724 1467.16 Q79.1261 1466.58 81.1632 1466.58 Q86.5335 1466.58 89.7279 1469.27 Q92.9224 1471.95 92.9224 1476.44 Q92.9224 1478.57 92.1122 1480.49 Q91.3251 1482.39 89.2187 1484.99 Q88.64 1485.66 85.5381 1488.87 Q82.4363 1492.07 76.7882 1497.83 Z" fill="#000000" fill-rule="evenodd" fill-opacity="1" /><path clip-path="url(#clip660)" d="M112.922 1470.29 Q109.311 1470.29 107.482 1473.85 Q105.677 1477.39 105.677 1484.52 Q105.677 1491.63 107.482 1495.19 Q109.311 1498.74 112.922 1498.74 Q116.556 1498.74 118.362 1495.19 Q120.191 1491.63 120.191 1484.52 Q120.191 1477.39 118.362 1473.85 Q116.556 1470.29 112.922 1470.29 M112.922 1466.58 Q118.732 1466.58 121.788 1471.19 Q124.867 1475.77 124.867 1484.52 Q124.867 1493.25 121.788 1497.86 Q118.732 1502.44 112.922 1502.44 Q107.112 1502.44 104.033 1497.86 Q100.978 1493.25 100.978 1484.52 Q100.978 1475.77 104.033 1471.19 Q107.112 1466.58 112.922 1466.58 Z" fill="#000000" fill-rule="evenodd" fill-opacity="1" /><path clip-path="url(#clip660)" d="M112.922 1112.04 Q109.311 1112.04 107.482 1115.6 Q105.677 1119.15 105.677 1126.28 Q105.677 1133.38 107.482 1136.95 Q109.311 1140.49 112.922 1140.49 Q116.556 1140.49 118.362 1136.95 Q120.191 1133.38 120.191 1126.28 Q120.191 1119.15 118.362 1115.6 Q116.556 1112.04 112.922 1112.04 M112.922 1108.34 Q118.732 1108.34 121.788 1112.94 Q124.867 1117.53 124.867 1126.28 Q124.867 1135 121.788 1139.61 Q118.732 1144.19 112.922 1144.19 Q107.112 1144.19 104.033 1139.61 Q100.978 1135 100.978 1126.28 Q100.978 1117.53 104.033 1112.94 Q107.112 1108.34 112.922 1108.34 Z" fill="#000000" fill-rule="evenodd" fill-opacity="1" /><path clip-path="url(#clip660)" d="M76.7882 781.339 L93.1075 781.339 L93.1075 785.274 L71.1632 785.274 L71.1632 781.339 Q73.8252 778.584 78.4085 773.954 Q83.015 769.302 84.1956 767.959 Q86.4409 765.436 87.3205 763.7 Q88.2233 761.941 88.2233 760.251 Q88.2233 757.496 86.2789 755.76 Q84.3576 754.024 81.2558 754.024 Q79.0567 754.024 76.603 754.788 Q74.1725 755.552 71.3947 757.103 L71.3947 752.38 Q74.2188 751.246 76.6724 750.668 Q79.1261 750.089 81.1632 750.089 Q86.5335 750.089 89.7279 752.774 Q92.9224 755.459 92.9224 759.95 Q92.9224 762.08 92.1122 764.001 Q91.3251 765.899 89.2187 768.492 Q88.64 769.163 85.5381 772.38 Q82.4363 775.575 76.7882 781.339 Z" fill="#000000" fill-rule="evenodd" fill-opacity="1" /><path clip-path="url(#clip660)" d="M112.922 753.793 Q109.311 753.793 107.482 757.357 Q105.677 760.899 105.677 768.029 Q105.677 775.135 107.482 778.7 Q109.311 782.241 112.922 782.241 Q116.556 782.241 118.362 778.7 Q120.191 775.135 120.191 768.029 Q120.191 760.899 118.362 757.357 Q116.556 753.793 112.922 753.793 M112.922 750.089 Q118.732 750.089 121.788 754.695 Q124.867 759.279 124.867 768.029 Q124.867 776.755 121.788 781.362 Q118.732 785.945 112.922 785.945 Q107.112 785.945 104.033 781.362 Q100.978 776.755 100.978 768.029 Q100.978 759.279 104.033 754.695 Q107.112 750.089 112.922 750.089 Z" fill="#000000" fill-rule="evenodd" fill-opacity="1" /><path clip-path="url(#clip660)" d="M85.6076 396.541 L73.8021 414.99 L85.6076 414.99 L85.6076 396.541 M84.3807 392.467 L90.2603 392.467 L90.2603 414.99 L95.1909 414.99 L95.1909 418.879 L90.2603 418.879 L90.2603 427.027 L85.6076 427.027 L85.6076 418.879 L70.0058 418.879 L70.0058 414.365 L84.3807 392.467 Z" fill="#000000" fill-rule="evenodd" fill-opacity="1" /><path clip-path="url(#clip660)" d="M112.922 395.545 Q109.311 395.545 107.482 399.11 Q105.677 402.652 105.677 409.782 Q105.677 416.888 107.482 420.453 Q109.311 423.994 112.922 423.994 Q116.556 423.994 118.362 420.453 Q120.191 416.888 120.191 409.782 Q120.191 402.652 118.362 399.11 Q116.556 395.545 112.922 395.545 M112.922 391.842 Q118.732 391.842 121.788 396.448 Q124.867 401.032 124.867 409.782 Q124.867 418.508 121.788 423.115 Q118.732 427.698 112.922 427.698 Q107.112 427.698 104.033 423.115 Q100.978 418.508 100.978 409.782 Q100.978 401.032 104.033 396.448 Q107.112 391.842 112.922 391.842 Z" fill="#000000" fill-rule="evenodd" fill-opacity="1" /><path clip-path="url(#clip660)" d="M83.3391 49.6364 Q80.1909 49.6364 78.3391 51.7891 Q76.5104 53.9419 76.5104 57.6919 Q76.5104 61.4187 78.3391 63.5946 Q80.1909 65.7474 83.3391 65.7474 Q86.4872 65.7474 88.3159 63.5946 Q90.1677 61.4187 90.1677 57.6919 Q90.1677 53.9419 88.3159 51.7891 Q86.4872 49.6364 83.3391 49.6364 M92.6214 34.9837 L92.6214 39.2429 Q90.8622 38.4096 89.0566 37.9698 Q87.2742 37.53 85.515 37.53 Q80.8854 37.53 78.4317 40.6549 Q76.0012 43.7799 75.6539 50.0993 Q77.0197 48.0855 79.0798 47.0206 Q81.14 45.9327 83.6169 45.9327 Q88.8252 45.9327 91.8344 49.104 Q94.8668 52.2521 94.8668 57.6919 Q94.8668 63.0159 91.7187 66.2335 Q88.5705 69.4511 83.3391 69.4511 Q77.3437 69.4511 74.1725 64.8678 Q71.0012 60.2613 71.0012 51.5345 Q71.0012 43.3401 74.89 38.479 Q78.7789 33.5948 85.3298 33.5948 Q87.0891 33.5948 88.8715 33.942 Q90.677 34.2892 92.6214 34.9837 Z" fill="#000000" fill-rule="evenodd" fill-opacity="1" /><path clip-path="url(#clip660)" d="M112.922 37.2985 Q109.311 37.2985 107.482 40.8633 Q105.677 44.4049 105.677 51.5345 Q105.677 58.641 107.482 62.2058 Q109.311 65.7474 112.922 65.7474 Q116.556 65.7474 118.362 62.2058 Q120.191 58.641 120.191 51.5345 Q120.191 44.4049 118.362 40.8633 Q116.556 37.2985 112.922 37.2985 M112.922 33.5948 Q118.732 33.5948 121.788 38.2013 Q124.867 42.7846 124.867 51.5345 Q124.867 60.2613 121.788 64.8678 Q118.732 69.4511 112.922 69.4511 Q107.112 69.4511 104.033 64.8678 Q100.978 60.2613 100.978 51.5345 Q100.978 42.7846 104.033 38.2013 Q107.112 33.5948 112.922 33.5948 Z" fill="#000000" fill-rule="evenodd" fill-opacity="1" /><polyline clip-path="url(#clip662)" style="stroke:#009af9; stroke-linecap:butt; stroke-linejoin:round; stroke-width:6; stroke-opacity:1; fill:none" points="
  178.867,1090.42 181.043,1090.23 183.219,1090.03 185.395,1089.82 187.571,1089.6 189.747,1089.36 191.923,1089.12 194.099,1088.85 196.275,1088.58 198.451,1088.3 
  200.627,1088 202.803,1087.69 204.979,1087.37 207.155,1087.04 209.332,1086.69 211.508,1086.33 213.684,1085.96 215.86,1085.58 218.036,1085.19 220.212,1084.78 
  222.388,1084.36 224.564,1083.93 226.74,1083.49 228.916,1083.04 231.092,1082.57 233.268,1082.09 235.444,1081.6 237.62,1081.09 239.796,1080.58 241.973,1080.05 
  244.149,1079.51 246.325,1078.96 248.501,1078.39 250.677,1077.81 252.853,1077.22 255.029,1076.62 257.205,1076 259.381,1075.37 261.557,1074.73 263.733,1074.07 
  265.909,1073.4 268.085,1072.72 270.261,1072.02 272.437,1071.31 274.614,1070.59 276.79,1069.86 278.966,1069.11 281.142,1068.34 283.318,1067.56 285.494,1066.77 
  287.67,1065.97 289.846,1065.15 292.022,1064.31 294.198,1063.46 296.374,1062.6 298.55,1061.72 300.726,1060.83 302.902,1059.92 305.078,1058.99 307.254,1058.05 
  309.431,1057.1 311.607,1056.13 313.783,1055.14 315.959,1054.14 318.135,1053.12 320.311,1052.08 322.487,1051.03 324.663,1049.97 326.839,1048.88 329.015,1047.78 
  331.191,1046.66 333.367,1045.52 335.543,1044.37 337.719,1043.2 339.895,1042.01 342.072,1040.8 344.248,1039.58 346.424,1038.34 348.6,1037.07 350.776,1035.79 
  352.952,1034.49 355.128,1033.18 357.304,1031.84 359.48,1030.48 361.656,1029.1 363.832,1027.71 366.008,1026.29 368.184,1024.85 370.36,1023.4 372.536,1021.92 
  374.713,1020.42 376.889,1018.9 379.065,1017.36 381.241,1015.8 383.417,1014.22 385.593,1012.61 387.769,1010.98 389.945,1009.34 392.121,1007.66 394.297,1005.97 
  396.473,1004.25 
  "/>
<polyline clip-path="url(#clip662)" style="stroke:#e26f46; stroke-linecap:butt; stroke-linejoin:round; stroke-width:6; stroke-opacity:1; fill:none" points="
  178.867,1072.5 181.043,1071.05 183.219,1069.59 185.395,1068.13 187.571,1066.66 189.747,1065.18 191.923,1063.7 194.099,1062.21 196.275,1060.71 198.451,1059.2 
  200.627,1057.69 202.803,1056.16 204.979,1054.63 207.155,1053.08 209.332,1051.52 211.508,1049.96 213.684,1048.38 215.86,1046.79 218.036,1045.18 220.212,1043.56 
  222.388,1041.93 224.564,1040.29 226.74,1038.63 228.916,1036.96 231.092,1035.27 233.268,1033.57 235.444,1031.84 237.62,1030.11 239.796,1028.35 241.973,1026.58 
  244.149,1024.8 246.325,1022.99 248.501,1021.16 250.677,1019.32 252.853,1017.45 255.029,1015.57 257.205,1013.67 259.381,1011.74 261.557,1009.8 263.733,1007.83 
  265.909,1005.84 268.085,1003.83 270.261,1001.79 272.437,999.736 274.614,997.655 276.79,995.55 278.966,993.42 281.142,991.266 283.318,989.086 285.494,986.881 
  287.67,984.649 289.846,982.391 292.022,980.106 294.198,977.794 296.374,975.455 298.55,973.087 300.726,970.69 302.902,968.265 305.078,965.81 307.254,963.326 
  309.431,960.811 311.607,958.266 313.783,955.69 315.959,953.083 318.135,950.444 320.311,947.773 322.487,945.069 324.663,942.333 326.839,939.564 329.015,936.761 
  331.191,933.923 333.367,931.052 335.543,928.146 337.719,925.205 339.895,922.228 342.072,919.216 344.248,916.168 346.424,913.083 348.6,909.962 350.776,906.803 
  352.952,903.607 355.128,900.374 357.304,897.102 359.48,893.792 361.656,890.444 363.832,887.057 366.008,883.631 368.184,880.165 370.36,876.661 372.536,873.116 
  374.713,869.532 376.889,865.907 379.065,862.242 381.241,858.537 383.417,854.791 385.593,851.004 387.769,847.177 389.945,843.309 392.121,839.4 394.297,835.45 
  396.473,831.459 
  "/>
<polyline clip-path="url(#clip662)" style="stroke:#3da44d; stroke-linecap:butt; stroke-linejoin:round; stroke-width:6; stroke-opacity:1; fill:none" points="
  178.867,1377.01 181.043,1376.24 183.219,1375.46 185.395,1374.68 187.571,1373.9 189.747,1373.11 191.923,1372.33 194.099,1371.54 196.275,1370.75 198.451,1369.96 
  200.627,1369.17 202.803,1368.37 204.979,1367.58 207.155,1366.78 209.332,1365.97 211.508,1365.17 213.684,1364.36 215.86,1363.55 218.036,1362.73 220.212,1361.91 
  222.388,1361.09 224.564,1360.27 226.74,1359.44 228.916,1358.61 231.092,1357.77 233.268,1356.93 235.444,1356.08 237.62,1355.23 239.796,1354.38 241.973,1353.52 
  244.149,1352.65 246.325,1351.78 248.501,1350.9 250.677,1350.02 252.853,1349.13 255.029,1348.23 257.205,1347.33 259.381,1346.42 261.557,1345.51 263.733,1344.58 
  265.909,1343.65 268.085,1342.71 270.261,1341.77 272.437,1340.81 274.614,1339.85 276.79,1338.87 278.966,1337.89 281.142,1336.9 283.318,1335.89 285.494,1334.88 
  287.67,1333.86 289.846,1332.82 292.022,1331.77 294.198,1330.71 296.374,1329.64 298.55,1328.56 300.726,1327.46 302.902,1326.35 305.078,1325.22 307.254,1324.08 
  309.431,1322.93 311.607,1321.76 313.783,1320.57 315.959,1319.37 318.135,1318.15 320.311,1316.91 322.487,1315.65 324.663,1314.38 326.839,1313.08 329.015,1311.77 
  331.191,1310.43 333.367,1309.07 335.543,1307.7 337.719,1306.3 339.895,1304.87 342.072,1303.42 344.248,1301.95 346.424,1300.45 348.6,1298.93 350.776,1297.38 
  352.952,1295.8 355.128,1294.2 357.304,1292.56 359.48,1290.89 361.656,1289.2 363.832,1287.47 366.008,1285.7 368.184,1283.91 370.36,1282.08 372.536,1280.21 
  374.713,1278.31 376.889,1276.37 379.065,1274.39 381.241,1272.37 383.417,1270.31 385.593,1268.2 387.769,1266.06 389.945,1263.87 392.121,1261.63 394.297,1259.35 
  396.473,1257.01 
  "/>
<polyline clip-path="url(#clip662)" style="stroke:#c271d2; stroke-linecap:butt; stroke-linejoin:round; stroke-width:6; stroke-opacity:1; fill:none" points="
  396.473,1004.25 398.649,1002.51 400.825,1000.75 403.001,998.966 405.177,997.157 407.353,995.325 409.53,993.468 411.706,991.588 413.882,989.684 416.058,987.756 
  418.234,985.803 420.41,983.826 422.586,981.824 424.762,979.798 426.938,977.746 429.114,975.67 431.29,973.568 433.466,971.441 435.642,969.289 437.818,967.111 
  439.994,964.908 442.171,962.679 444.347,960.424 446.523,958.143 448.699,955.837 450.875,953.504 453.051,951.146 455.227,948.762 457.403,946.352 459.579,943.916 
  461.755,941.454 463.931,938.966 466.107,936.453 468.283,933.913 470.459,931.348 472.635,928.757 474.812,926.141 476.988,923.5 479.164,920.833 481.34,918.142 
  483.516,915.425 485.692,912.684 487.868,909.919 490.044,907.129 492.22,904.316 494.396,901.479 496.572,898.619 498.748,895.736 500.924,892.831 503.1,889.904 
  505.276,886.955 507.452,883.985 509.629,880.995 511.805,877.985 513.981,874.955 516.157,871.906 518.333,868.84 520.509,865.755 522.685,862.654 524.861,859.537 
  527.037,856.405 529.213,853.258 531.389,850.098 533.565,846.925 535.741,843.741 537.917,840.545 540.093,837.34 542.27,834.127 544.446,830.906 546.622,827.679 
  548.798,824.447 550.974,821.211 553.15,817.972 555.326,814.732 557.502,811.493 559.678,808.255 561.854,805.021 564.03,801.791 566.206,798.567 568.382,795.352 
  570.558,792.146 572.734,788.951 574.911,785.77 577.087,782.603 579.263,779.453 581.439,776.322 583.615,773.212 585.791,770.124 587.967,767.061 590.143,764.024 
  592.319,761.016 594.495,758.04 596.671,755.096 598.847,752.187 601.023,749.316 603.199,746.485 605.375,743.696 607.552,740.951 609.728,738.253 611.904,735.604 
  614.08,733.006 
  "/>
<polyline clip-path="url(#clip662)" style="stroke:#ac8d18; stroke-linecap:butt; stroke-linejoin:round; stroke-width:6; stroke-opacity:1; fill:none" points="
  396.473,831.459 398.649,827.427 400.825,823.354 403.001,819.241 405.177,815.086 407.353,810.891 409.53,806.656 411.706,802.38 413.882,798.065 416.058,793.709 
  418.234,789.314 420.41,784.88 422.586,780.407 424.762,775.895 426.938,771.346 429.114,766.759 431.29,762.135 433.466,757.475 435.642,752.78 437.818,748.049 
  439.994,743.285 442.171,738.487 444.347,733.656 446.523,728.794 448.699,723.901 450.875,718.979 453.051,714.028 455.227,709.05 457.403,704.047 459.579,699.018 
  461.755,693.967 463.931,688.894 466.107,683.8 468.283,678.689 470.459,673.56 472.635,668.417 474.812,663.261 476.988,658.094 479.164,652.918 481.34,647.735 
  483.516,642.548 485.692,637.36 487.868,632.172 490.044,626.987 492.22,621.809 494.396,616.639 496.572,611.481 498.748,606.338 500.924,601.214 503.1,596.11 
  505.276,591.032 507.452,585.981 509.629,580.963 511.805,575.981 513.981,571.039 516.157,566.14 518.333,561.289 520.509,556.49 522.685,551.749 524.861,547.068 
  527.037,542.453 529.213,537.909 531.389,533.44 533.565,529.051 535.741,524.749 537.917,520.537 540.093,516.421 542.27,512.407 544.446,508.501 546.622,504.707 
  548.798,501.031 550.974,497.481 553.15,494.06 555.326,490.776 557.502,487.634 559.678,484.641 561.854,481.802 564.03,479.125 566.206,476.614 568.382,474.277 
  570.558,472.119 572.734,470.147 574.911,468.368 577.087,466.786 579.263,465.41 581.439,464.244 583.615,463.295 585.791,462.569 587.967,462.071 590.143,461.808 
  592.319,461.785 594.495,462.009 596.671,462.483 598.847,463.213 601.023,464.205 603.199,465.464 605.375,466.993 607.552,468.797 609.728,470.88 611.904,473.246 
  614.08,475.899 
  "/>
<polyline clip-path="url(#clip662)" style="stroke:#00a9ad; stroke-linecap:butt; stroke-linejoin:round; stroke-width:6; stroke-opacity:1; fill:none" points="
  396.473,1257.01 398.649,1254.63 400.825,1252.2 403.001,1249.72 405.177,1247.18 407.353,1244.59 409.53,1241.94 411.706,1239.23 413.882,1236.47 416.058,1233.64 
  418.234,1230.75 420.41,1227.8 422.586,1224.78 424.762,1221.7 426.938,1218.54 429.114,1215.32 431.29,1212.03 433.466,1208.66 435.642,1205.21 437.818,1201.69 
  439.994,1198.09 442.171,1194.41 444.347,1190.64 446.523,1186.8 448.699,1182.86 450.875,1178.84 453.051,1174.73 455.227,1170.52 457.403,1166.22 459.579,1161.83 
  461.755,1157.33 463.931,1152.74 466.107,1148.05 468.283,1143.25 470.459,1138.35 472.635,1133.33 474.812,1128.21 476.988,1122.98 479.164,1117.63 481.34,1112.17 
  483.516,1106.59 485.692,1100.89 487.868,1095.07 490.044,1089.12 492.22,1083.05 494.396,1076.85 496.572,1070.52 498.748,1064.07 500.924,1057.47 503.1,1050.75 
  505.276,1043.89 507.452,1036.89 509.629,1029.75 511.805,1022.47 513.981,1015.05 516.157,1007.49 518.333,999.778 520.509,991.924 522.685,983.923 524.861,975.775 
  527.037,967.478 529.213,959.033 531.389,950.438 533.565,941.692 535.741,932.797 537.917,923.751 540.093,914.555 542.27,905.209 544.446,895.713 546.622,886.068 
  548.798,876.274 550.974,866.333 553.15,856.246 555.326,846.013 557.502,835.637 559.678,825.12 561.854,814.463 564.03,803.669 566.206,792.741 568.382,781.68 
  570.558,770.491 572.734,759.177 574.911,747.74 577.087,736.186 579.263,724.518 581.439,712.741 583.615,700.859 585.791,688.878 587.967,676.803 590.143,664.639 
  592.319,652.393 594.495,640.07 596.671,627.678 598.847,615.223 601.023,602.712 603.199,590.153 605.375,577.554 607.552,564.921 609.728,552.265 611.904,539.592 
  614.08,526.912 
  "/>
<polyline clip-path="url(#clip662)" style="stroke:#ed5d92; stroke-linecap:butt; stroke-linejoin:round; stroke-width:6; stroke-opacity:1; fill:none" points="
  614.08,733.006 616.256,730.461 618.432,727.973 620.608,725.543 622.784,723.174 624.96,720.869 627.136,718.628 629.312,716.456 631.488,714.353 633.664,712.323 
  635.84,710.368 638.016,708.49 640.192,706.691 642.369,704.974 644.545,703.34 646.721,701.791 648.897,700.331 651.073,698.96 653.249,697.68 655.425,696.495 
  657.601,695.404 659.777,694.411 661.953,693.516 664.129,692.721 666.305,692.029 668.481,691.439 670.657,690.954 672.833,690.575 675.01,690.303 677.186,690.138 
  679.362,690.082 681.538,690.136 683.714,690.301 685.89,690.576 688.066,690.963 690.242,691.462 692.418,692.073 694.594,692.796 696.77,693.632 698.946,694.58 
  701.122,695.64 703.298,696.812 705.474,698.095 707.651,699.49 709.827,700.995 712.003,702.609 714.179,704.332 716.355,706.162 718.531,708.1 720.707,710.143 
  722.883,712.29 725.059,714.54 727.235,716.891 729.411,719.343 731.587,721.892 733.763,724.539 735.939,727.28 738.115,730.114 740.291,733.038 742.468,736.052 
  744.644,739.153 746.82,742.338 748.996,745.606 751.172,748.954 753.348,752.381 755.524,755.883 757.7,759.458 759.876,763.104 762.052,766.819 764.228,770.6 
  766.404,774.444 768.58,778.35 770.756,782.315 772.932,786.335 775.109,790.409 777.285,794.535 779.461,798.709 781.637,802.929 783.813,807.193 785.989,811.498 
  788.165,815.842 790.341,820.223 792.517,824.637 794.693,829.083 796.869,833.558 799.045,838.06 801.221,842.587 803.397,847.136 805.573,851.706 807.75,856.293 
  809.926,860.897 812.102,865.514 814.278,870.143 816.454,874.782 818.63,879.428 820.806,884.081 822.982,888.737 825.158,893.396 827.334,898.055 829.51,902.713 
  831.686,907.368 
  "/>
<polyline clip-path="url(#clip662)" style="stroke:#c68125; stroke-linecap:butt; stroke-linejoin:round; stroke-width:6; stroke-opacity:1; fill:none" points="
  614.08,475.899 616.256,478.841 618.432,482.076 620.608,485.605 622.784,489.432 624.96,493.558 627.136,497.984 629.312,502.711 631.488,507.74 633.664,513.071 
  635.84,518.703 638.016,524.636 640.192,530.869 642.369,537.4 644.545,544.226 646.721,551.345 648.897,558.754 651.073,566.449 653.249,574.426 655.425,582.68 
  657.601,591.207 659.777,600 661.953,609.054 664.129,618.363 666.305,627.918 668.481,637.714 670.657,647.741 672.833,657.993 675.01,668.459 677.186,679.132 
  679.362,690.001 681.538,701.058 683.714,712.292 685.89,723.692 688.066,735.249 690.242,746.951 692.418,758.787 694.594,770.747 696.77,782.818 698.946,794.99 
  701.122,807.25 703.298,819.587 705.474,831.989 707.651,844.445 709.827,856.942 712.003,869.469 714.179,882.015 716.355,894.567 718.531,907.115 720.707,919.647 
  722.883,932.152 725.059,944.619 727.235,957.038 729.411,969.397 731.587,981.688 733.763,993.9 735.939,1006.02 738.115,1018.05 740.291,1029.97 742.468,1041.77 
  744.644,1053.45 746.82,1065 748.996,1076.41 751.172,1087.68 753.348,1098.79 755.524,1109.75 757.7,1120.54 759.876,1131.16 762.052,1141.61 764.228,1151.88 
  766.404,1161.96 768.58,1171.86 770.756,1181.56 772.932,1191.07 775.109,1200.39 777.285,1209.51 779.461,1218.42 781.637,1227.14 783.813,1235.65 785.989,1243.96 
  788.165,1252.06 790.341,1259.96 792.517,1267.65 794.693,1275.14 796.869,1282.43 799.045,1289.51 801.221,1296.39 803.397,1303.07 805.573,1309.55 807.75,1315.84 
  809.926,1321.92 812.102,1327.82 814.278,1333.53 816.454,1339.04 818.63,1344.38 820.806,1349.53 822.982,1354.5 825.158,1359.29 827.334,1363.91 829.51,1368.36 
  831.686,1372.65 
  "/>
<polyline clip-path="url(#clip662)" style="stroke:#00a98d; stroke-linecap:butt; stroke-linejoin:round; stroke-width:6; stroke-opacity:1; fill:none" points="
  614.08,526.912 616.256,514.234 618.432,501.568 620.608,488.921 622.784,476.305 624.96,463.729 627.136,451.202 629.312,438.736 631.488,426.34 633.664,414.025 
  635.84,401.801 638.016,389.678 640.192,377.668 642.369,365.781 644.545,354.027 646.721,342.417 648.897,330.962 651.073,319.672 653.249,308.558 655.425,297.629 
  657.601,286.896 659.777,276.368 661.953,266.055 664.129,255.967 666.305,246.113 668.481,236.502 670.657,227.142 672.833,218.041 675.01,209.208 677.186,200.65 
  679.362,192.373 681.538,184.386 683.714,176.693 685.89,169.301 688.066,162.215 690.242,155.44 692.418,148.98 694.594,142.838 696.77,137.02 698.946,131.526 
  701.122,126.359 703.298,121.521 705.474,117.014 707.651,112.837 709.827,108.991 712.003,105.475 714.179,102.289 716.355,99.4302 718.531,96.8978 720.707,94.6888 
  722.883,92.8004 725.059,91.229 727.235,89.9707 729.411,89.0213 731.587,88.3759 733.763,88.0294 735.939,87.9763 738.115,88.2106 740.291,88.7261 742.468,89.5163 
  744.644,90.5743 746.82,91.8929 748.996,93.4648 751.172,95.2823 753.348,97.3377 755.524,99.623 757.7,102.13 759.876,104.85 762.052,107.776 764.228,110.898 
  766.404,114.208 768.58,117.697 770.756,121.357 772.932,125.18 775.109,129.156 777.285,133.277 779.461,137.535 781.637,141.92 783.813,146.426 785.989,151.042 
  788.165,155.763 790.341,160.578 792.517,165.481 794.693,170.463 796.869,175.518 799.045,180.637 801.221,185.814 803.397,191.041 805.573,196.311 807.75,201.618 
  809.926,206.956 812.102,212.318 814.278,217.698 816.454,223.09 818.63,228.489 820.806,233.889 822.982,239.285 825.158,244.672 827.334,250.045 829.51,255.4 
  831.686,260.732 
  "/>
<polyline clip-path="url(#clip662)" style="stroke:#8e971d; stroke-linecap:butt; stroke-linejoin:round; stroke-width:6; stroke-opacity:1; fill:none" points="
  831.686,907.368 833.862,912.019 836.038,916.663 838.214,921.3 840.39,925.928 842.567,930.545 844.743,935.15 846.919,939.742 849.095,944.32 851.271,948.882 
  853.447,953.427 855.623,957.954 857.799,962.462 859.975,966.95 862.151,971.417 864.327,975.862 866.503,980.283 868.679,984.681 870.855,989.054 873.031,993.402 
  875.208,997.723 877.384,1002.02 879.56,1006.28 881.736,1010.52 883.912,1014.73 886.088,1018.91 888.264,1023.06 890.44,1027.18 892.616,1031.27 894.792,1035.33 
  896.968,1039.36 899.144,1043.35 901.32,1047.31 903.496,1051.24 905.672,1055.13 907.849,1059 910.025,1062.82 912.201,1066.62 914.377,1070.38 916.553,1074.1 
  918.729,1077.79 920.905,1081.45 923.081,1085.07 925.257,1088.66 927.433,1092.21 929.609,1095.73 931.785,1099.21 933.961,1102.66 936.137,1106.07 938.313,1109.45 
  940.49,1112.79 942.666,1116.1 944.842,1119.37 947.018,1122.61 949.194,1125.81 951.37,1128.97 953.546,1132.11 955.722,1135.2 957.898,1138.26 960.074,1141.29 
  962.25,1144.28 964.426,1147.24 966.602,1150.17 968.778,1153.06 970.954,1155.91 973.13,1158.73 975.307,1161.52 977.483,1164.27 979.659,1166.99 981.835,1169.68 
  984.011,1172.33 986.187,1174.95 988.363,1177.54 990.539,1180.1 992.715,1182.62 994.891,1185.11 997.067,1187.56 999.243,1189.99 1001.42,1192.38 1003.6,1194.74 
  1005.77,1197.07 1007.95,1199.36 1010.12,1201.63 1012.3,1203.86 1014.48,1206.07 1016.65,1208.24 1018.83,1210.38 1021,1212.49 1023.18,1214.57 1025.36,1216.62 
  1027.53,1218.64 1029.71,1220.63 1031.88,1222.59 1034.06,1224.52 1036.24,1226.42 1038.41,1228.3 1040.59,1230.14 1042.76,1231.95 1044.94,1233.74 1047.12,1235.5 
  
  "/>
<polyline clip-path="url(#clip662)" style="stroke:#00a8cb; stroke-linecap:butt; stroke-linejoin:round; stroke-width:6; stroke-opacity:1; fill:none" points="
  831.686,1372.65 833.862,1376.77 836.038,1380.72 838.214,1384.53 840.39,1388.18 842.567,1391.67 844.743,1395.03 846.919,1398.23 849.095,1401.3 851.271,1404.24 
  853.447,1407.04 855.623,1409.71 857.799,1412.26 859.975,1414.68 862.151,1416.99 864.327,1419.18 866.503,1421.26 868.679,1423.22 870.855,1425.09 873.031,1426.85 
  875.208,1428.51 877.384,1430.08 879.56,1431.55 881.736,1432.93 883.912,1434.23 886.088,1435.44 888.264,1436.57 890.44,1437.62 892.616,1438.6 894.792,1439.5 
  896.968,1440.33 899.144,1441.09 901.32,1441.78 903.496,1442.41 905.672,1442.98 907.849,1443.49 910.025,1443.94 912.201,1444.33 914.377,1444.68 916.553,1444.97 
  918.729,1445.21 920.905,1445.4 923.081,1445.54 925.257,1445.64 927.433,1445.7 929.609,1445.72 931.785,1445.69 933.961,1445.63 936.137,1445.53 938.313,1445.39 
  940.49,1445.22 942.666,1445.01 944.842,1444.78 947.018,1444.51 949.194,1444.21 951.37,1443.88 953.546,1443.52 955.722,1443.14 957.898,1442.73 960.074,1442.29 
  962.25,1441.83 964.426,1441.35 966.602,1440.84 968.778,1440.31 970.954,1439.75 973.13,1439.18 975.307,1438.58 977.483,1437.97 979.659,1437.33 981.835,1436.68 
  984.011,1436 986.187,1435.31 988.363,1434.6 990.539,1433.87 992.715,1433.13 994.891,1432.37 997.067,1431.59 999.243,1430.8 1001.42,1429.99 1003.6,1429.17 
  1005.77,1428.33 1007.95,1427.47 1010.12,1426.61 1012.3,1425.72 1014.48,1424.83 1016.65,1423.91 1018.83,1422.99 1021,1422.05 1023.18,1421.1 1025.36,1420.13 
  1027.53,1419.15 1029.71,1418.16 1031.88,1417.15 1034.06,1416.14 1036.24,1415.1 1038.41,1414.06 1040.59,1413 1042.76,1411.94 1044.94,1410.86 1047.12,1409.76 
  
  "/>
<polyline clip-path="url(#clip662)" style="stroke:#9b7fe8; stroke-linecap:butt; stroke-linejoin:round; stroke-width:6; stroke-opacity:1; fill:none" points="
  831.686,260.732 833.862,266.037 836.038,271.311 838.214,276.551 840.39,281.753 842.567,286.913 844.743,292.028 846.919,297.096 849.095,302.114 851.271,307.079 
  853.447,311.988 855.623,316.839 857.799,321.631 859.975,326.36 862.151,331.026 864.327,335.627 866.503,340.161 868.679,344.627 870.855,349.024 873.031,353.35 
  875.208,357.604 877.384,361.786 879.56,365.896 881.736,369.931 883.912,373.892 886.088,377.778 888.264,381.589 890.44,385.324 892.616,388.984 894.792,392.568 
  896.968,396.077 899.144,399.509 901.32,402.867 903.496,406.148 905.672,409.355 907.849,412.486 910.025,415.543 912.201,418.526 914.377,421.435 916.553,424.271 
  918.729,427.035 920.905,429.726 923.081,432.345 925.257,434.894 927.433,437.373 929.609,439.782 931.785,442.122 933.961,444.395 936.137,446.6 938.313,448.738 
  940.49,450.811 942.666,452.82 944.842,454.764 947.018,456.645 949.194,458.464 951.37,460.222 953.546,461.92 955.722,463.557 957.898,465.137 960.074,466.658 
  962.25,468.123 964.426,469.533 966.602,470.887 968.778,472.188 970.954,473.435 973.13,474.631 975.307,475.775 977.483,476.869 979.659,477.915 981.835,478.912 
  984.011,479.861 986.187,480.765 988.363,481.623 990.539,482.437 992.715,483.207 994.891,483.934 997.067,484.62 999.243,485.266 1001.42,485.871 1003.6,486.438 
  1005.77,486.967 1007.95,487.459 1010.12,487.914 1012.3,488.335 1014.48,488.721 1016.65,489.074 1018.83,489.394 1021,489.682 1023.18,489.94 1025.36,490.168 
  1027.53,490.367 1029.71,490.537 1031.88,490.681 1034.06,490.797 1036.24,490.889 1038.41,490.955 1040.59,490.997 1042.76,491.016 1044.94,491.013 1047.12,490.988 
  
  "/>
<polyline clip-path="url(#clip662)" style="stroke:#608cf6; stroke-linecap:butt; stroke-linejoin:round; stroke-width:6; stroke-opacity:1; fill:none" points="
  1049.29,1235.5 1051.47,1237.22 1053.64,1238.92 1055.82,1240.6 1058,1242.24 1060.17,1243.86 1062.35,1245.45 1064.53,1247.01 1066.7,1248.54 1068.88,1250.05 
  1071.05,1251.53 1073.23,1252.98 1075.41,1254.41 1077.58,1255.81 1079.76,1257.18 1081.93,1258.53 1084.11,1259.85 1086.29,1261.15 1088.46,1262.42 1090.64,1263.66 
  1092.81,1264.88 1094.99,1266.07 1097.17,1267.24 1099.34,1268.38 1101.52,1269.5 1103.69,1270.59 1105.87,1271.66 1108.05,1272.71 1110.22,1273.73 1112.4,1274.72 
  1114.57,1275.7 1116.75,1276.65 1118.93,1277.57 1121.1,1278.47 1123.28,1279.35 1125.46,1280.2 1127.63,1281.04 1129.81,1281.84 1131.98,1282.63 1134.16,1283.39 
  1136.34,1284.14 1138.51,1284.85 1140.69,1285.55 1142.86,1286.23 1145.04,1286.88 1147.22,1287.51 1149.39,1288.12 1151.57,1288.71 1153.74,1289.27 1155.92,1289.82 
  1158.1,1290.34 1160.27,1290.85 1162.45,1291.33 1164.62,1291.79 1166.8,1292.24 1168.98,1292.66 1171.15,1293.06 1173.33,1293.44 1175.5,1293.81 1177.68,1294.15 
  1179.86,1294.48 1182.03,1294.78 1184.21,1295.07 1186.38,1295.34 1188.56,1295.58 1190.74,1295.81 1192.91,1296.03 1195.09,1296.22 1197.27,1296.4 1199.44,1296.56 
  1201.62,1296.7 1203.79,1296.82 1205.97,1296.93 1208.15,1297.02 1210.32,1297.09 1212.5,1297.14 1214.67,1297.18 1216.85,1297.21 1219.03,1297.21 1221.2,1297.2 
  1223.38,1297.18 1225.55,1297.14 1227.73,1297.08 1229.91,1297.01 1232.08,1296.92 1234.26,1296.82 1236.43,1296.71 1238.61,1296.58 1240.79,1296.43 1242.96,1296.28 
  1245.14,1296.1 1247.31,1295.92 1249.49,1295.72 1251.67,1295.51 1253.84,1295.28 1256.02,1295.04 1258.2,1294.79 1260.37,1294.53 1262.55,1294.25 1264.72,1293.96 
  
  "/>
<polyline clip-path="url(#clip662)" style="stroke:#f05f73; stroke-linecap:butt; stroke-linejoin:round; stroke-width:6; stroke-opacity:1; fill:none" points="
  1049.29,1409.76 1051.47,1408.66 1053.64,1407.54 1055.82,1406.41 1058,1405.27 1060.17,1404.12 1062.35,1402.95 1064.53,1401.78 1066.7,1400.59 1068.88,1399.39 
  1071.05,1398.18 1073.23,1396.96 1075.41,1395.73 1077.58,1394.48 1079.76,1393.23 1081.93,1391.96 1084.11,1390.68 1086.29,1389.4 1088.46,1388.1 1090.64,1386.79 
  1092.81,1385.47 1094.99,1384.14 1097.17,1382.8 1099.34,1381.45 1101.52,1380.1 1103.69,1378.73 1105.87,1377.35 1108.05,1375.96 1110.22,1374.56 1112.4,1373.16 
  1114.57,1371.74 1116.75,1370.31 1118.93,1368.88 1121.1,1367.44 1123.28,1365.99 1125.46,1364.53 1127.63,1363.06 1129.81,1361.59 1131.98,1360.11 1134.16,1358.61 
  1136.34,1357.12 1138.51,1355.61 1140.69,1354.1 1142.86,1352.58 1145.04,1351.06 1147.22,1349.53 1149.39,1347.99 1151.57,1346.45 1153.74,1344.9 1155.92,1343.35 
  1158.1,1341.79 1160.27,1340.22 1162.45,1338.65 1164.62,1337.08 1166.8,1335.5 1168.98,1333.92 1171.15,1332.34 1173.33,1330.75 1175.5,1329.16 1177.68,1327.56 
  1179.86,1325.97 1182.03,1324.37 1184.21,1322.77 1186.38,1321.16 1188.56,1319.56 1190.74,1317.95 1192.91,1316.35 1195.09,1314.74 1197.27,1313.13 1199.44,1311.52 
  1201.62,1309.91 1203.79,1308.31 1205.97,1306.7 1208.15,1305.09 1210.32,1303.49 1212.5,1301.89 1214.67,1300.28 1216.85,1298.68 1219.03,1297.09 1221.2,1295.49 
  1223.38,1293.9 1225.55,1292.31 1227.73,1290.73 1229.91,1289.15 1232.08,1287.57 1234.26,1286 1236.43,1284.43 1238.61,1282.86 1240.79,1281.3 1242.96,1279.75 
  1245.14,1278.2 1247.31,1276.66 1249.49,1275.12 1251.67,1273.59 1253.84,1272.07 1256.02,1270.55 1258.2,1269.04 1260.37,1267.54 1262.55,1266.04 1264.72,1264.55 
  
  "/>
<polyline clip-path="url(#clip662)" style="stroke:#dd64b5; stroke-linecap:butt; stroke-linejoin:round; stroke-width:6; stroke-opacity:1; fill:none" points="
  1049.29,490.988 1051.47,490.942 1053.64,490.877 1055.82,490.792 1058,490.688 1060.17,490.567 1062.35,490.43 1064.53,490.275 1066.7,490.106 1068.88,489.922 
  1071.05,489.724 1073.23,489.513 1075.41,489.289 1077.58,489.053 1079.76,488.807 1081.93,488.55 1084.11,488.283 1086.29,488.007 1088.46,487.723 1090.64,487.431 
  1092.81,487.132 1094.99,486.827 1097.17,486.516 1099.34,486.2 1101.52,485.879 1103.69,485.555 1105.87,485.227 1108.05,484.896 1110.22,484.563 1112.4,484.229 
  1114.57,483.894 1116.75,483.558 1118.93,483.223 1121.1,482.888 1123.28,482.554 1125.46,482.222 1127.63,481.893 1129.81,481.566 1131.98,481.242 1134.16,480.922 
  1136.34,480.606 1138.51,480.295 1140.69,479.989 1142.86,479.689 1145.04,479.394 1147.22,479.106 1149.39,478.825 1151.57,478.551 1153.74,478.285 1155.92,478.027 
  1158.1,477.777 1160.27,477.536 1162.45,477.304 1164.62,477.082 1166.8,476.869 1168.98,476.666 1171.15,476.474 1173.33,476.293 1175.5,476.123 1177.68,475.964 
  1179.86,475.816 1182.03,475.681 1184.21,475.558 1186.38,475.447 1188.56,475.348 1190.74,475.263 1192.91,475.191 1195.09,475.131 1197.27,475.086 1199.44,475.053 
  1201.62,475.035 1203.79,475.031 1205.97,475.041 1208.15,475.065 1210.32,475.103 1212.5,475.156 1214.67,475.224 1216.85,475.307 1219.03,475.404 1221.2,475.516 
  1223.38,475.644 1225.55,475.786 1227.73,475.944 1229.91,476.117 1232.08,476.305 1234.26,476.509 1236.43,476.728 1238.61,476.962 1240.79,477.212 1242.96,477.477 
  1245.14,477.757 1247.31,478.053 1249.49,478.365 1251.67,478.691 1253.84,479.033 1256.02,479.391 1258.2,479.763 1260.37,480.151 1262.55,480.554 1264.72,480.972 
  
  "/>
<polyline clip-path="url(#clip662)" style="stroke:#6b9e32; stroke-linecap:butt; stroke-linejoin:round; stroke-width:6; stroke-opacity:1; fill:none" points="
  1266.9,1293.96 1269.08,1293.66 1271.25,1293.35 1273.43,1293.03 1275.6,1292.69 1277.78,1292.35 1279.96,1291.99 1282.13,1291.62 1284.31,1291.25 1286.48,1290.86 
  1288.66,1290.46 1290.84,1290.05 1293.01,1289.63 1295.19,1289.21 1297.36,1288.77 1299.54,1288.32 1301.72,1287.87 1303.89,1287.4 1306.07,1286.93 1308.24,1286.45 
  1310.42,1285.96 1312.6,1285.47 1314.77,1284.96 1316.95,1284.45 1319.12,1283.93 1321.3,1283.4 1323.48,1282.87 1325.65,1282.33 1327.83,1281.78 1330.01,1281.23 
  1332.18,1280.67 1334.36,1280.1 1336.53,1279.53 1338.71,1278.95 1340.89,1278.37 1343.06,1277.78 1345.24,1277.19 1347.41,1276.59 1349.59,1275.98 1351.77,1275.38 
  1353.94,1274.76 1356.12,1274.15 1358.29,1273.53 1360.47,1272.9 1362.65,1272.27 1364.82,1271.64 1367,1271 1369.17,1270.36 1371.35,1269.72 1373.53,1269.07 
  1375.7,1268.42 1377.88,1267.77 1380.05,1267.12 1382.23,1266.46 1384.41,1265.8 1386.58,1265.14 1388.76,1264.48 1390.94,1263.82 1393.11,1263.15 1395.29,1262.48 
  1397.46,1261.81 1399.64,1261.14 1401.82,1260.47 1403.99,1259.8 1406.17,1259.13 1408.34,1258.45 1410.52,1257.78 1412.7,1257.1 1414.87,1256.43 1417.05,1255.75 
  1419.22,1255.08 1421.4,1254.4 1423.58,1253.73 1425.75,1253.05 1427.93,1252.38 1430.1,1251.7 1432.28,1251.03 1434.46,1250.36 1436.63,1249.68 1438.81,1249.01 
  1440.98,1248.34 1443.16,1247.67 1445.34,1247.01 1447.51,1246.34 1449.69,1245.68 1451.86,1245.01 1454.04,1244.35 1456.22,1243.69 1458.39,1243.03 1460.57,1242.38 
  1462.75,1241.72 1464.92,1241.07 1467.1,1240.42 1469.27,1239.77 1471.45,1239.13 1473.63,1238.48 1475.8,1237.84 1477.98,1237.2 1480.15,1236.57 1482.33,1235.93 
  
  "/>
<polyline clip-path="url(#clip662)" style="stroke:#009af9; stroke-linecap:butt; stroke-linejoin:round; stroke-width:6; stroke-opacity:1; fill:none" points="
  1266.9,1264.55 1269.08,1263.07 1271.25,1261.6 1273.43,1260.14 1275.6,1258.68 1277.78,1257.24 1279.96,1255.8 1282.13,1254.37 1284.31,1252.95 1286.48,1251.54 
  1288.66,1250.14 1290.84,1248.75 1293.01,1247.37 1295.19,1246 1297.36,1244.64 1299.54,1243.29 1301.72,1241.95 1303.89,1240.62 1306.07,1239.3 1308.24,1237.99 
  1310.42,1236.7 1312.6,1235.41 1314.77,1234.14 1316.95,1232.88 1319.12,1231.63 1321.3,1230.39 1323.48,1229.16 1325.65,1227.94 1327.83,1226.74 1330.01,1225.55 
  1332.18,1224.37 1334.36,1223.2 1336.53,1222.05 1338.71,1220.91 1340.89,1219.78 1343.06,1218.66 1345.24,1217.55 1347.41,1216.46 1349.59,1215.38 1351.77,1214.32 
  1353.94,1213.26 1356.12,1212.22 1358.29,1211.19 1360.47,1210.17 1362.65,1209.17 1364.82,1208.18 1367,1207.2 1369.17,1206.24 1371.35,1205.28 1373.53,1204.34 
  1375.7,1203.42 1377.88,1202.5 1380.05,1201.6 1382.23,1200.71 1384.41,1199.84 1386.58,1198.97 1388.76,1198.12 1390.94,1197.29 1393.11,1196.46 1395.29,1195.65 
  1397.46,1194.85 1399.64,1194.06 1401.82,1193.29 1403.99,1192.52 1406.17,1191.77 1408.34,1191.04 1410.52,1190.31 1412.7,1189.6 1414.87,1188.89 1417.05,1188.21 
  1419.22,1187.53 1421.4,1186.86 1423.58,1186.21 1425.75,1185.57 1427.93,1184.94 1430.1,1184.32 1432.28,1183.71 1434.46,1183.12 1436.63,1182.53 1438.81,1181.96 
  1440.98,1181.4 1443.16,1180.85 1445.34,1180.31 1447.51,1179.78 1449.69,1179.27 1451.86,1178.76 1454.04,1178.27 1456.22,1177.78 1458.39,1177.31 1460.57,1176.84 
  1462.75,1176.39 1464.92,1175.95 1467.1,1175.52 1469.27,1175.09 1471.45,1174.68 1473.63,1174.28 1475.8,1173.88 1477.98,1173.5 1480.15,1173.13 1482.33,1172.76 
  
  "/>
<polyline clip-path="url(#clip662)" style="stroke:#e26f46; stroke-linecap:butt; stroke-linejoin:round; stroke-width:6; stroke-opacity:1; fill:none" points="
  1266.9,480.972 1269.08,481.405 1271.25,481.853 1273.43,482.316 1275.6,482.794 1277.78,483.287 1279.96,483.794 1282.13,484.315 1284.31,484.851 1286.48,485.402 
  1288.66,485.966 1290.84,486.545 1293.01,487.137 1295.19,487.743 1297.36,488.363 1299.54,488.997 1301.72,489.644 1303.89,490.304 1306.07,490.977 1308.24,491.664 
  1310.42,492.363 1312.6,493.074 1314.77,493.799 1316.95,494.535 1319.12,495.284 1321.3,496.045 1323.48,496.818 1325.65,497.602 1327.83,498.398 1330.01,499.205 
  1332.18,500.023 1334.36,500.853 1336.53,501.693 1338.71,502.544 1340.89,503.405 1343.06,504.277 1345.24,505.159 1347.41,506.05 1349.59,506.952 1351.77,507.863 
  1353.94,508.783 1356.12,509.713 1358.29,510.651 1360.47,511.599 1362.65,512.555 1364.82,513.52 1367,514.493 1369.17,515.474 1371.35,516.463 1373.53,517.46 
  1375.7,518.464 1377.88,519.476 1380.05,520.495 1382.23,521.521 1384.41,522.554 1386.58,523.594 1388.76,524.64 1390.94,525.693 1393.11,526.752 1395.29,527.817 
  1397.46,528.887 1399.64,529.964 1401.82,531.046 1403.99,532.134 1406.17,533.226 1408.34,534.324 1410.52,535.427 1412.7,536.534 1414.87,537.646 1417.05,538.762 
  1419.22,539.883 1421.4,541.008 1423.58,542.137 1425.75,543.27 1427.93,544.406 1430.1,545.546 1432.28,546.689 1434.46,547.836 1436.63,548.986 1438.81,550.139 
  1440.98,551.295 1443.16,552.453 1445.34,553.615 1447.51,554.778 1449.69,555.944 1451.86,557.113 1454.04,558.283 1456.22,559.456 1458.39,560.63 1460.57,561.806 
  1462.75,562.984 1464.92,564.164 1467.1,565.345 1469.27,566.527 1471.45,567.711 1473.63,568.895 1475.8,570.081 1477.98,571.268 1480.15,572.455 1482.33,573.644 
  
  "/>
<polyline clip-path="url(#clip662)" style="stroke:#3da44d; stroke-linecap:butt; stroke-linejoin:round; stroke-width:6; stroke-opacity:1; fill:none" points="
  1484.51,1235.93 1486.68,1235.3 1488.86,1234.68 1491.03,1234.05 1493.21,1233.43 1495.39,1232.81 1497.56,1232.2 1499.74,1231.58 1501.91,1230.97 1504.09,1230.37 
  1506.27,1229.76 1508.44,1229.16 1510.62,1228.57 1512.79,1227.98 1514.97,1227.39 1517.15,1226.8 1519.32,1226.22 1521.5,1225.64 1523.68,1225.06 1525.85,1224.49 
  1528.03,1223.92 1530.2,1223.36 1532.38,1222.8 1534.56,1222.24 1536.73,1221.69 1538.91,1221.14 1541.08,1220.6 1543.26,1220.06 1545.44,1219.52 1547.61,1218.99 
  1549.79,1218.46 1551.96,1217.93 1554.14,1217.41 1556.32,1216.9 1558.49,1216.39 1560.67,1215.88 1562.84,1215.37 1565.02,1214.87 1567.2,1214.38 1569.37,1213.89 
  1571.55,1213.4 1573.72,1212.92 1575.9,1212.44 1578.08,1211.97 1580.25,1211.5 1582.43,1211.03 1584.6,1210.57 1586.78,1210.11 1588.96,1209.66 1591.13,1209.21 
  1593.31,1208.77 1595.49,1208.33 1597.66,1207.9 1599.84,1207.47 1602.01,1207.04 1604.19,1206.62 1606.37,1206.2 1608.54,1205.79 1610.72,1205.38 1612.89,1204.98 
  1615.07,1204.58 1617.25,1204.18 1619.42,1203.79 1621.6,1203.41 1623.77,1203.02 1625.95,1202.65 1628.13,1202.27 1630.3,1201.9 1632.48,1201.54 1634.65,1201.18 
  1636.83,1200.82 1639.01,1200.47 1641.18,1200.13 1643.36,1199.79 1645.53,1199.45 1647.71,1199.11 1649.89,1198.78 1652.06,1198.46 1654.24,1198.14 1656.41,1197.82 
  1658.59,1197.51 1660.77,1197.2 1662.94,1196.9 1665.12,1196.6 1667.3,1196.31 1669.47,1196.02 1671.65,1195.73 1673.82,1195.45 1676,1195.17 1678.18,1194.9 
  1680.35,1194.63 1682.53,1194.37 1684.7,1194.11 1686.88,1193.85 1689.06,1193.6 1691.23,1193.35 1693.41,1193.1 1695.58,1192.86 1697.76,1192.63 1699.94,1192.4 
  
  "/>
<polyline clip-path="url(#clip662)" style="stroke:#c271d2; stroke-linecap:butt; stroke-linejoin:round; stroke-width:6; stroke-opacity:1; fill:none" points="
  1484.51,1172.76 1486.68,1172.41 1488.86,1172.06 1491.03,1171.73 1493.21,1171.4 1495.39,1171.08 1497.56,1170.78 1499.74,1170.48 1501.91,1170.18 1504.09,1169.9 
  1506.27,1169.63 1508.44,1169.36 1510.62,1169.11 1512.79,1168.86 1514.97,1168.62 1517.15,1168.38 1519.32,1168.16 1521.5,1167.94 1523.68,1167.73 1525.85,1167.53 
  1528.03,1167.34 1530.2,1167.15 1532.38,1166.98 1534.56,1166.8 1536.73,1166.64 1538.91,1166.48 1541.08,1166.33 1543.26,1166.19 1545.44,1166.05 1547.61,1165.93 
  1549.79,1165.8 1551.96,1165.69 1554.14,1165.58 1556.32,1165.48 1558.49,1165.38 1560.67,1165.29 1562.84,1165.2 1565.02,1165.13 1567.2,1165.06 1569.37,1164.99 
  1571.55,1164.93 1573.72,1164.88 1575.9,1164.83 1578.08,1164.78 1580.25,1164.75 1582.43,1164.72 1584.6,1164.69 1586.78,1164.67 1588.96,1164.65 1591.13,1164.64 
  1593.31,1164.64 1595.49,1164.64 1597.66,1164.64 1599.84,1164.65 1602.01,1164.67 1604.19,1164.68 1606.37,1164.71 1608.54,1164.74 1610.72,1164.77 1612.89,1164.81 
  1615.07,1164.85 1617.25,1164.9 1619.42,1164.95 1621.6,1165 1623.77,1165.06 1625.95,1165.13 1628.13,1165.2 1630.3,1165.27 1632.48,1165.34 1634.65,1165.42 
  1636.83,1165.51 1639.01,1165.6 1641.18,1165.69 1643.36,1165.78 1645.53,1165.88 1647.71,1165.99 1649.89,1166.09 1652.06,1166.2 1654.24,1166.32 1656.41,1166.43 
  1658.59,1166.55 1660.77,1166.68 1662.94,1166.81 1665.12,1166.94 1667.3,1167.07 1669.47,1167.21 1671.65,1167.35 1673.82,1167.49 1676,1167.64 1678.18,1167.79 
  1680.35,1167.94 1682.53,1168.1 1684.7,1168.26 1686.88,1168.42 1689.06,1168.58 1691.23,1168.75 1693.41,1168.92 1695.58,1169.1 1697.76,1169.27 1699.94,1169.45 
  
  "/>
<polyline clip-path="url(#clip662)" style="stroke:#ac8d18; stroke-linecap:butt; stroke-linejoin:round; stroke-width:6; stroke-opacity:1; fill:none" points="
  1484.51,573.644 1486.68,574.833 1488.86,576.022 1491.03,577.212 1493.21,578.403 1495.39,579.594 1497.56,580.785 1499.74,581.976 1501.91,583.167 1504.09,584.359 
  1506.27,585.55 1508.44,586.741 1510.62,587.931 1512.79,589.122 1514.97,590.312 1517.15,591.502 1519.32,592.691 1521.5,593.879 1523.68,595.067 1525.85,596.254 
  1528.03,597.441 1530.2,598.626 1532.38,599.811 1534.56,600.995 1536.73,602.178 1538.91,603.359 1541.08,604.54 1543.26,605.719 1545.44,606.898 1547.61,608.074 
  1549.79,609.25 1551.96,610.424 1554.14,611.597 1556.32,612.769 1558.49,613.939 1560.67,615.107 1562.84,616.274 1565.02,617.439 1567.2,618.603 1569.37,619.765 
  1571.55,620.925 1573.72,622.083 1575.9,623.24 1578.08,624.394 1580.25,625.547 1582.43,626.698 1584.6,627.847 1586.78,628.994 1588.96,630.139 1591.13,631.282 
  1593.31,632.423 1595.49,633.562 1597.66,634.699 1599.84,635.834 1602.01,636.966 1604.19,638.096 1606.37,639.225 1608.54,640.35 1610.72,641.474 1612.89,642.595 
  1615.07,643.714 1617.25,644.831 1619.42,645.946 1621.6,647.058 1623.77,648.167 1625.95,649.274 1628.13,650.379 1630.3,651.482 1632.48,652.582 1634.65,653.679 
  1636.83,654.774 1639.01,655.867 1641.18,656.957 1643.36,658.044 1645.53,659.129 1647.71,660.211 1649.89,661.291 1652.06,662.368 1654.24,663.443 1656.41,664.515 
  1658.59,665.584 1660.77,666.651 1662.94,667.715 1665.12,668.776 1667.3,669.835 1669.47,670.891 1671.65,671.944 1673.82,672.995 1676,674.043 1678.18,675.088 
  1680.35,676.13 1682.53,677.17 1684.7,678.207 1686.88,679.241 1689.06,680.273 1691.23,681.301 1693.41,682.327 1695.58,683.35 1697.76,684.37 1699.94,685.388 
  
  "/>
<polyline clip-path="url(#clip662)" style="stroke:#00a9ad; stroke-linecap:butt; stroke-linejoin:round; stroke-width:6; stroke-opacity:1; fill:none" points="
  1702.11,1192.4 1704.29,1192.17 1706.46,1191.95 1708.64,1191.73 1710.82,1191.51 1712.99,1191.3 1715.17,1191.09 1717.34,1190.89 1719.52,1190.69 1721.7,1190.5 
  1723.87,1190.31 1726.05,1190.12 1728.23,1189.94 1730.4,1189.76 1732.58,1189.58 1734.75,1189.41 1736.93,1189.24 1739.11,1189.08 1741.28,1188.92 1743.46,1188.76 
  1745.63,1188.61 1747.81,1188.46 1749.99,1188.32 1752.16,1188.18 1754.34,1188.04 1756.51,1187.91 1758.69,1187.78 1760.87,1187.65 1763.04,1187.53 1765.22,1187.41 
  1767.39,1187.3 1769.57,1187.19 1771.75,1187.08 1773.92,1186.98 1776.1,1186.88 1778.27,1186.78 1780.45,1186.69 1782.63,1186.6 1784.8,1186.52 1786.98,1186.44 
  1789.15,1186.36 1791.33,1186.28 1793.51,1186.21 1795.68,1186.14 1797.86,1186.08 1800.04,1186.02 1802.21,1185.96 1804.39,1185.91 1806.56,1185.86 1808.74,1185.81 
  1810.92,1185.77 1813.09,1185.73 1815.27,1185.7 1817.44,1185.66 1819.62,1185.63 1821.8,1185.61 1823.97,1185.58 1826.15,1185.57 1828.32,1185.55 1830.5,1185.54 
  1832.68,1185.53 1834.85,1185.52 1837.03,1185.52 1839.2,1185.52 1841.38,1185.53 1843.56,1185.53 1845.73,1185.54 1847.91,1185.56 1850.08,1185.58 1852.26,1185.6 
  1854.44,1185.62 1856.61,1185.65 1858.79,1185.68 1860.97,1185.71 1863.14,1185.75 1865.32,1185.79 1867.49,1185.83 1869.67,1185.88 1871.85,1185.93 1874.02,1185.98 
  1876.2,1186.04 1878.37,1186.1 1880.55,1186.16 1882.73,1186.22 1884.9,1186.29 1887.08,1186.37 1889.25,1186.44 1891.43,1186.52 1893.61,1186.6 1895.78,1186.68 
  1897.96,1186.77 1900.13,1186.86 1902.31,1186.96 1904.49,1187.05 1906.66,1187.15 1908.84,1187.26 1911.01,1187.36 1913.19,1187.47 1915.37,1187.59 1917.54,1187.7 
  
  "/>
<polyline clip-path="url(#clip662)" style="stroke:#ed5d92; stroke-linecap:butt; stroke-linejoin:round; stroke-width:6; stroke-opacity:1; fill:none" points="
  1702.11,1169.45 1704.29,1169.64 1706.46,1169.82 1708.64,1170.01 1710.82,1170.2 1712.99,1170.39 1715.17,1170.59 1717.34,1170.79 1719.52,1170.99 1721.7,1171.19 
  1723.87,1171.4 1726.05,1171.61 1728.23,1171.82 1730.4,1172.03 1732.58,1172.25 1734.75,1172.47 1736.93,1172.69 1739.11,1172.92 1741.28,1173.14 1743.46,1173.37 
  1745.63,1173.6 1747.81,1173.84 1749.99,1174.07 1752.16,1174.31 1754.34,1174.55 1756.51,1174.8 1758.69,1175.04 1760.87,1175.29 1763.04,1175.54 1765.22,1175.79 
  1767.39,1176.05 1769.57,1176.31 1771.75,1176.57 1773.92,1176.83 1776.1,1177.09 1778.27,1177.36 1780.45,1177.63 1782.63,1177.9 1784.8,1178.18 1786.98,1178.45 
  1789.15,1178.73 1791.33,1179.01 1793.51,1179.3 1795.68,1179.58 1797.86,1179.87 1800.04,1180.16 1802.21,1180.45 1804.39,1180.75 1806.56,1181.04 1808.74,1181.34 
  1810.92,1181.64 1813.09,1181.95 1815.27,1182.26 1817.44,1182.56 1819.62,1182.88 1821.8,1183.19 1823.97,1183.5 1826.15,1183.82 1828.32,1184.14 1830.5,1184.47 
  1832.68,1184.79 1834.85,1185.12 1837.03,1185.45 1839.2,1185.78 1841.38,1186.12 1843.56,1186.45 1845.73,1186.79 1847.91,1187.13 1850.08,1187.48 1852.26,1187.83 
  1854.44,1188.18 1856.61,1188.53 1858.79,1188.88 1860.97,1189.24 1863.14,1189.6 1865.32,1189.96 1867.49,1190.33 1869.67,1190.69 1871.85,1191.06 1874.02,1191.43 
  1876.2,1191.81 1878.37,1192.19 1880.55,1192.57 1882.73,1192.95 1884.9,1193.33 1887.08,1193.72 1889.25,1194.11 1891.43,1194.51 1893.61,1194.9 1895.78,1195.3 
  1897.96,1195.7 1900.13,1196.11 1902.31,1196.51 1904.49,1196.92 1906.66,1197.34 1908.84,1197.75 1911.01,1198.17 1913.19,1198.59 1915.37,1199.02 1917.54,1199.44 
  
  "/>
<polyline clip-path="url(#clip662)" style="stroke:#c68125; stroke-linecap:butt; stroke-linejoin:round; stroke-width:6; stroke-opacity:1; fill:none" points="
  1702.11,685.388 1704.29,686.403 1706.46,687.414 1708.64,688.423 1710.82,689.429 1712.99,690.432 1715.17,691.433 1717.34,692.43 1719.52,693.425 1721.7,694.417 
  1723.87,695.405 1726.05,696.391 1728.23,697.374 1730.4,698.355 1732.58,699.332 1734.75,700.306 1736.93,701.277 1739.11,702.246 1741.28,703.211 1743.46,704.174 
  1745.63,705.133 1747.81,706.09 1749.99,707.043 1752.16,707.994 1754.34,708.941 1756.51,709.886 1758.69,710.828 1760.87,711.766 1763.04,712.702 1765.22,713.634 
  1767.39,714.564 1769.57,715.491 1771.75,716.414 1773.92,717.334 1776.1,718.252 1778.27,719.166 1780.45,720.077 1782.63,720.985 1784.8,721.89 1786.98,722.792 
  1789.15,723.691 1791.33,724.587 1793.51,725.48 1795.68,726.369 1797.86,727.255 1800.04,728.139 1802.21,729.019 1804.39,729.896 1806.56,730.769 1808.74,731.64 
  1810.92,732.507 1813.09,733.372 1815.27,734.233 1817.44,735.091 1819.62,735.945 1821.8,736.797 1823.97,737.645 1826.15,738.49 1828.32,739.331 1830.5,740.17 
  1832.68,741.005 1834.85,741.837 1837.03,742.665 1839.2,743.491 1841.38,744.313 1843.56,745.131 1845.73,745.947 1847.91,746.759 1850.08,747.567 1852.26,748.372 
  1854.44,749.174 1856.61,749.973 1858.79,750.768 1860.97,751.56 1863.14,752.348 1865.32,753.133 1867.49,753.914 1869.67,754.692 1871.85,755.467 1874.02,756.238 
  1876.2,757.005 1878.37,757.769 1880.55,758.53 1882.73,759.286 1884.9,760.04 1887.08,760.79 1889.25,761.536 1891.43,762.279 1893.61,763.018 1895.78,763.753 
  1897.96,764.485 1900.13,765.213 1902.31,765.937 1904.49,766.658 1906.66,767.375 1908.84,768.088 1911.01,768.798 1913.19,769.504 1915.37,770.206 1917.54,770.904 
  
  "/>
<polyline clip-path="url(#clip662)" style="stroke:#00a98d; stroke-linecap:butt; stroke-linejoin:round; stroke-width:6; stroke-opacity:1; fill:none" points="
  1919.72,1187.7 1921.89,1187.82 1924.07,1187.94 1926.25,1188.07 1928.42,1188.2 1930.6,1188.33 1932.78,1188.46 1934.95,1188.6 1937.13,1188.74 1939.3,1188.89 
  1941.48,1189.03 1943.66,1189.18 1945.83,1189.34 1948.01,1189.49 1950.18,1189.65 1952.36,1189.81 1954.54,1189.98 1956.71,1190.15 1958.89,1190.32 1961.06,1190.49 
  1963.24,1190.67 1965.42,1190.85 1967.59,1191.04 1969.77,1191.22 1971.94,1191.41 1974.12,1191.61 1976.3,1191.81 1978.47,1192 1980.65,1192.21 1982.82,1192.41 
  1985,1192.62 1987.18,1192.84 1989.35,1193.05 1991.53,1193.27 1993.71,1193.49 1995.88,1193.72 1998.06,1193.94 2000.23,1194.18 2002.41,1194.41 2004.59,1194.65 
  2006.76,1194.89 2008.94,1195.13 2011.11,1195.38 2013.29,1195.63 2015.47,1195.88 2017.64,1196.14 2019.82,1196.4 2021.99,1196.66 2024.17,1196.93 2026.35,1197.2 
  2028.52,1197.47 2030.7,1197.75 2032.87,1198.03 2035.05,1198.31 2037.23,1198.6 2039.4,1198.89 2041.58,1199.18 2043.75,1199.48 2045.93,1199.78 2048.11,1200.08 
  2050.28,1200.38 2052.46,1200.69 2054.63,1201.01 2056.81,1201.32 2058.99,1201.64 2061.16,1201.96 2063.34,1202.29 2065.52,1202.62 2067.69,1202.95 2069.87,1203.29 
  2072.04,1203.63 2074.22,1203.97 2076.4,1204.32 2078.57,1204.67 2080.75,1205.02 2082.92,1205.38 2085.1,1205.74 2087.28,1206.1 2089.45,1206.47 2091.63,1206.84 
  2093.8,1207.22 2095.98,1207.6 2098.16,1207.98 2100.33,1208.36 2102.51,1208.75 2104.68,1209.14 2106.86,1209.54 2109.04,1209.94 2111.21,1210.34 2113.39,1210.75 
  2115.56,1211.16 2117.74,1211.57 2119.92,1211.99 2122.09,1212.41 2124.27,1212.84 2126.45,1213.26 2128.62,1213.7 2130.8,1214.13 2132.97,1214.57 2135.15,1215.02 
  
  "/>
<polyline clip-path="url(#clip662)" style="stroke:#8e971d; stroke-linecap:butt; stroke-linejoin:round; stroke-width:6; stroke-opacity:1; fill:none" points="
  1919.72,1199.44 1921.89,1199.87 1924.07,1200.31 1926.25,1200.74 1928.42,1201.18 1930.6,1201.62 1932.78,1202.07 1934.95,1202.52 1937.13,1202.97 1939.3,1203.42 
  1941.48,1203.88 1943.66,1204.34 1945.83,1204.8 1948.01,1205.27 1950.18,1205.74 1952.36,1206.21 1954.54,1206.69 1956.71,1207.17 1958.89,1207.65 1961.06,1208.13 
  1963.24,1208.62 1965.42,1209.12 1967.59,1209.61 1969.77,1210.11 1971.94,1210.61 1974.12,1211.12 1976.3,1211.63 1978.47,1212.14 1980.65,1212.66 1982.82,1213.18 
  1985,1213.7 1987.18,1214.23 1989.35,1214.76 1991.53,1215.29 1993.71,1215.83 1995.88,1216.37 1998.06,1216.92 2000.23,1217.46 2002.41,1218.02 2004.59,1218.57 
  2006.76,1219.13 2008.94,1219.7 2011.11,1220.26 2013.29,1220.83 2015.47,1221.41 2017.64,1221.99 2019.82,1222.57 2021.99,1223.16 2024.17,1223.75 2026.35,1224.34 
  2028.52,1224.94 2030.7,1225.54 2032.87,1226.15 2035.05,1226.76 2037.23,1227.37 2039.4,1227.99 2041.58,1228.62 2043.75,1229.24 2045.93,1229.87 2048.11,1230.51 
  2050.28,1231.15 2052.46,1231.79 2054.63,1232.44 2056.81,1233.09 2058.99,1233.75 2061.16,1234.41 2063.34,1235.07 2065.52,1235.74 2067.69,1236.42 2069.87,1237.09 
  2072.04,1237.78 2074.22,1238.46 2076.4,1239.15 2078.57,1239.85 2080.75,1240.55 2082.92,1241.25 2085.1,1241.96 2087.28,1242.68 2089.45,1243.39 2091.63,1244.12 
  2093.8,1244.84 2095.98,1245.57 2098.16,1246.31 2100.33,1247.05 2102.51,1247.8 2104.68,1248.55 2106.86,1249.3 2109.04,1250.06 2111.21,1250.83 2113.39,1251.59 
  2115.56,1252.37 2117.74,1253.15 2119.92,1253.93 2122.09,1254.72 2124.27,1255.51 2126.45,1256.31 2128.62,1257.11 2130.8,1257.91 2132.97,1258.72 2135.15,1259.54 
  
  "/>
<polyline clip-path="url(#clip662)" style="stroke:#00a8cb; stroke-linecap:butt; stroke-linejoin:round; stroke-width:6; stroke-opacity:1; fill:none" points="
  1919.72,770.904 1921.89,771.599 1924.07,772.289 1926.25,772.976 1928.42,773.659 1930.6,774.338 1932.78,775.013 1934.95,775.685 1937.13,776.352 1939.3,777.015 
  1941.48,777.675 1943.66,778.33 1945.83,778.981 1948.01,779.629 1950.18,780.272 1952.36,780.911 1954.54,781.546 1956.71,782.177 1958.89,782.804 1961.06,783.426 
  1963.24,784.044 1965.42,784.658 1967.59,785.268 1969.77,785.874 1971.94,786.475 1974.12,787.072 1976.3,787.664 1978.47,788.253 1980.65,788.836 1982.82,789.416 
  1985,789.99 1987.18,790.561 1989.35,791.126 1991.53,791.688 1993.71,792.244 1995.88,792.796 1998.06,793.344 2000.23,793.886 2002.41,794.424 2004.59,794.957 
  2006.76,795.486 2008.94,796.009 2011.11,796.528 2013.29,797.042 2015.47,797.551 2017.64,798.055 2019.82,798.554 2021.99,799.048 2024.17,799.537 2026.35,800.021 
  2028.52,800.5 2030.7,800.973 2032.87,801.441 2035.05,801.905 2037.23,802.362 2039.4,802.815 2041.58,803.262 2043.75,803.704 2045.93,804.14 2048.11,804.571 
  2050.28,804.996 2052.46,805.415 2054.63,805.829 2056.81,806.238 2058.99,806.64 2061.16,807.037 2063.34,807.428 2065.52,807.813 2067.69,808.193 2069.87,808.566 
  2072.04,808.933 2074.22,809.295 2076.4,809.65 2078.57,809.999 2080.75,810.341 2082.92,810.678 2085.1,811.008 2087.28,811.332 2089.45,811.649 2091.63,811.96 
  2093.8,812.265 2095.98,812.563 2098.16,812.854 2100.33,813.138 2102.51,813.416 2104.68,813.687 2106.86,813.951 2109.04,814.208 2111.21,814.458 2113.39,814.701 
  2115.56,814.936 2117.74,815.165 2119.92,815.386 2122.09,815.6 2124.27,815.807 2126.45,816.006 2128.62,816.198 2130.8,816.382 2132.97,816.558 2135.15,816.727 
  
  "/>
<polyline clip-path="url(#clip662)" style="stroke:#9b7fe8; stroke-linecap:butt; stroke-linejoin:round; stroke-width:6; stroke-opacity:1; fill:none" points="
  2137.33,1215.02 2139.5,1215.46 2141.68,1215.91 2143.85,1216.37 2146.03,1216.83 2148.21,1217.29 2150.38,1217.75 2152.56,1218.22 2154.73,1218.7 2156.91,1219.18 
  2159.09,1219.66 2161.26,1220.14 2163.44,1220.63 2165.61,1221.12 2167.79,1221.62 2169.97,1222.12 2172.14,1222.62 2174.32,1223.13 2176.49,1223.64 2178.67,1224.16 
  2180.85,1224.68 2183.02,1225.2 2185.2,1225.73 2187.37,1226.26 2189.55,1226.8 2191.73,1227.34 2193.9,1227.88 2196.08,1228.43 2198.26,1228.98 2200.43,1229.54 
  2202.61,1230.1 2204.78,1230.66 2206.96,1231.23 2209.14,1231.8 2211.31,1232.37 2213.49,1232.95 2215.66,1233.54 2217.84,1234.12 2220.02,1234.71 2222.19,1235.31 
  2224.37,1235.91 2226.54,1236.51 2228.72,1237.12 2230.9,1237.73 2233.07,1238.35 2235.25,1238.97 2237.42,1239.59 2239.6,1240.22 2241.78,1240.85 2243.95,1241.48 
  2246.13,1242.12 2248.3,1242.77 2250.48,1243.41 2252.66,1244.07 2254.83,1244.72 2257.01,1245.38 2259.19,1246.04 2261.36,1246.71 2263.54,1247.38 2265.71,1248.06 
  2267.89,1248.74 2270.07,1249.42 2272.24,1250.11 2274.42,1250.8 2276.59,1251.49 2278.77,1252.19 2280.95,1252.9 2283.12,1253.6 2285.3,1254.31 2287.47,1255.03 
  2289.65,1255.74 2291.83,1256.47 2294,1257.19 2296.18,1257.92 2298.35,1258.65 2300.53,1259.39 2302.71,1260.13 2304.88,1260.87 2307.06,1261.62 2309.23,1262.37 
  2311.41,1263.13 2313.59,1263.88 2315.76,1264.65 2317.94,1265.41 2320.11,1266.18 2322.29,1266.95 2324.47,1267.73 2326.64,1268.51 2328.82,1269.29 2331,1270.07 
  2333.17,1270.86 2335.35,1271.65 2337.52,1272.45 2339.7,1273.24 2341.88,1274.04 2344.05,1274.85 2346.23,1275.65 2348.4,1276.46 2350.58,1277.28 2352.76,1278.09 
  
  "/>
<polyline clip-path="url(#clip662)" style="stroke:#608cf6; stroke-linecap:butt; stroke-linejoin:round; stroke-width:6; stroke-opacity:1; fill:none" points="
  2137.33,1259.54 2139.5,1260.36 2141.68,1261.19 2143.85,1262.02 2146.03,1262.85 2148.21,1263.69 2150.38,1264.54 2152.56,1265.39 2154.73,1266.24 2156.91,1267.1 
  2159.09,1267.96 2161.26,1268.83 2163.44,1269.71 2165.61,1270.58 2167.79,1271.47 2169.97,1272.36 2172.14,1273.25 2174.32,1274.14 2176.49,1275.05 2178.67,1275.95 
  2180.85,1276.86 2183.02,1277.78 2185.2,1278.7 2187.37,1279.63 2189.55,1280.56 2191.73,1281.49 2193.9,1282.43 2196.08,1283.37 2198.26,1284.32 2200.43,1285.28 
  2202.61,1286.23 2204.78,1287.19 2206.96,1288.16 2209.14,1289.13 2211.31,1290.11 2213.49,1291.09 2215.66,1292.07 2217.84,1293.06 2220.02,1294.05 2222.19,1295.05 
  2224.37,1296.05 2226.54,1297.05 2228.72,1298.06 2230.9,1299.08 2233.07,1300.09 2235.25,1301.11 2237.42,1302.14 2239.6,1303.17 2241.78,1304.2 2243.95,1305.24 
  2246.13,1306.27 2248.3,1307.32 2250.48,1308.37 2252.66,1309.42 2254.83,1310.47 2257.01,1311.53 2259.19,1312.59 2261.36,1313.65 2263.54,1314.72 2265.71,1315.79 
  2267.89,1316.86 2270.07,1317.93 2272.24,1319.01 2274.42,1320.09 2276.59,1321.17 2278.77,1322.26 2280.95,1323.35 2283.12,1324.44 2285.3,1325.53 2287.47,1326.62 
  2289.65,1327.72 2291.83,1328.82 2294,1329.92 2296.18,1331.02 2298.35,1332.12 2300.53,1333.23 2302.71,1334.33 2304.88,1335.44 2307.06,1336.54 2309.23,1337.65 
  2311.41,1338.76 2313.59,1339.87 2315.76,1340.98 2317.94,1342.09 2320.11,1343.2 2322.29,1344.31 2324.47,1345.41 2326.64,1346.52 2328.82,1347.63 2331,1348.74 
  2333.17,1349.84 2335.35,1350.95 2337.52,1352.05 2339.7,1353.15 2341.88,1354.25 2344.05,1355.35 2346.23,1356.45 2348.4,1357.54 2350.58,1358.63 2352.76,1359.72 
  
  "/>
<polyline clip-path="url(#clip662)" style="stroke:#f05f73; stroke-linecap:butt; stroke-linejoin:round; stroke-width:6; stroke-opacity:1; fill:none" points="
  2137.33,816.727 2139.5,816.888 2141.68,817.041 2143.85,817.186 2146.03,817.323 2148.21,817.451 2150.38,817.572 2152.56,817.685 2154.73,817.789 2156.91,817.884 
  2159.09,817.972 2161.26,818.05 2163.44,818.12 2165.61,818.182 2167.79,818.234 2169.97,818.278 2172.14,818.312 2174.32,818.338 2176.49,818.354 2178.67,818.362 
  2180.85,818.36 2183.02,818.348 2185.2,818.327 2187.37,818.297 2189.55,818.256 2191.73,818.207 2193.9,818.147 2196.08,818.077 2198.26,817.998 2200.43,817.908 
  2202.61,817.808 2204.78,817.697 2206.96,817.577 2209.14,817.446 2211.31,817.304 2213.49,817.151 2215.66,816.988 2217.84,816.814 2220.02,816.629 2222.19,816.433 
  2224.37,816.226 2226.54,816.007 2228.72,815.777 2230.9,815.536 2233.07,815.283 2235.25,815.018 2237.42,814.741 2239.6,814.453 2241.78,814.153 2243.95,813.84 
  2246.13,813.516 2248.3,813.179 2250.48,812.829 2252.66,812.467 2254.83,812.093 2257.01,811.706 2259.19,811.306 2261.36,810.893 2263.54,810.467 2265.71,810.027 
  2267.89,809.575 2270.07,809.109 2272.24,808.63 2274.42,808.137 2276.59,807.63 2278.77,807.11 2280.95,806.576 2283.12,806.027 2285.3,805.465 2287.47,804.888 
  2289.65,804.298 2291.83,803.692 2294,803.072 2296.18,802.438 2298.35,801.788 2300.53,801.124 2302.71,800.445 2304.88,799.751 2307.06,799.042 2309.23,798.317 
  2311.41,797.577 2313.59,796.822 2315.76,796.051 2317.94,795.264 2320.11,794.462 2322.29,793.644 2324.47,792.81 2326.64,791.96 2328.82,791.094 2331,790.211 
  2333.17,789.313 2335.35,788.398 2337.52,787.466 2339.7,786.518 2341.88,785.553 2344.05,784.572 2346.23,783.574 2348.4,782.559 2350.58,781.527 2352.76,780.479 
  
  "/>
</svg>
